<svg xmlns="http://www.w3.org/2000/svg" viewBox="322 0 740 242.8"><style>.st0{fill:#0d407e}</style><g id="wordmark">
    <path id="letter-b" class="st0" d="M470.1,93.7c-17.2-17.2-38.2-25.9-62.4-25.9s-37.6,6.1-52.7,18.1V13.9c0-7.9-6.7-13.9-15.5-13.9h-2c-9.1,0-15.5,5.7-15.5,13.9v141.6c0,24.8,8.4,45.6,25.1,61.8,16.9,16.9,37.6,25.5,61.5,25.5s44.7-8.3,61.5-25.5c16.6-16.6,25.1-37.4,25.1-61.8s-8.4-45.6-25.1-61.8ZM370.1,116.4c10.7-10.7,23-16,37.6-16s27.6,5.1,37.5,15.9c10.2,10.6,15.2,23.3,15.2,38.8s-5.1,28.9-15.2,38.8c-10.8,11.1-22.7,16.3-37.5,16.3s-27.6-5-36.8-15.9h0c-10.2-10.3-15.2-23.1-15.2-39.3s4.7-28,14.4-38.6h0Z"/>
    <path id="letter-e" class="st0" d="M677.8,148.2c-1.2-20.7-9.6-39-25.1-54.5-16.9-16.9-37.6-25.5-61.5-25.5s-45,8.6-61.5,25.5c-16.6,16.6-25.1,37.4-25.1,61.8s8.4,45.6,25.1,61.8c16.9,16.9,37.6,25.5,61.5,25.5s44.7-8.3,61.5-25.5c6.4-6.4,11.3-14.4,15.2-21.4,1.5-2.9,1.5-6.7,0-9.7l-.2-.4c-2-2.4-4.8-5.1-9.4-5.1h-10.9c-6.7,0-10,1.3-11.6,4.5-2.1,3.3-4.4,6.3-6.5,8.5-10.7,10.7-23,16-37.6,16s-27.6-5.2-36.7-15.9h0c-7.5-7.6-12.3-16.7-13.8-26.4h117.7c4.4.7,9-1.1,13.8-5.3l.2-.2c3.8-4.3,5.3-8.6,4.9-14v.3h0ZM641.8,137h-99.2c2.5-7,6.6-13.6,12.1-19.5,10.5-10.9,22.4-15.9,37.4-15.9s27.5,5.1,37.5,16c5.9,5.9,10,12.4,12.2,19.4h0Z"/>
    <path id="letter-x" class="st0" d="M821,223.8l-50.6-69.2,45.6-61.4c3.8-4.3,3.8-10.5,0-14.9-2.7-2.8-6.5-4.2-11.3-4.2h-6.8c-5.9,0-10.9,2.3-13.6,6.4l-34.4,46.4-34.4-46.4c-2.7-4.1-7.7-6.4-13.6-6.4h-6.8c-4.8,0-8.6,1.4-11.3,4.2-3.8,4.4-3.8,10.6,0,14.9l45.6,61.4-50.6,69.2c-2.8,4.3-2.8,10.2,0,14.5,2.4,2.8,5.7,4.5,9.6,4.5h10.9c3.6,0,7.5-2.1,9.5-5.2l41.1-56.4,41.1,56.4c2,3.1,5.9,5.2,9.5,5.2h10.9c3.9,0,7.2-1.7,9.6-4.5,2.8-4.3,2.8-10.2,0-14.5h0Z"/>
    <path id="letter-i" class="st0" d="M855.3,6.4c-12.5,0-22.8,10.2-22.8,22.7s10,22.7,22.8,22.7,22.8-10,22.8-22.7-10-22.7-22.8-22.7ZM855.7,74.6h-2c-8.8,0-15.5,6.1-15.5,14.3v139.6c0,7.9,6.4,14.3,14.3,14.3h4.4c7.9,0,14.3-6.4,14.3-14.3V88.9c0-8.5-6.2-14.3-15.5-14.3Z"/>
    <path id="letter-o" class="st0" d="M1036.9,93.7c-16.9-16.9-37.6-25.5-61.5-25.5s-45,8.6-61.5,25.5c-16.6,16.6-25.1,37.4-25.1,61.8s8.4,45.6,25.1,61.8c16.9,16.9,37.6,25.5,61.5,25.5s44.7-8.3,61.5-25.5c16.6-16.6,25.1-37.4,25.1-61.8s-8.4-46-25.1-61.9h0v.1ZM1028.6,155.8c0,15.8-4.9,29-15,38.8-10.7,10.7-23,16-37.6,16s-27.6-5.2-36.7-15.9h0c-10.2-10.3-15.3-23.1-15.3-39.3s4.6-28,14.4-38.4c10.5-10.9,22.4-15.9,37.5-15.9s27.6,5.1,37.5,15.9c10.2,10.6,15.2,23.3,15.2,38.8h0Z"/>
  </g></svg>