<?xml version="1.0" encoding="UTF-8"?>
<svg id="Ebene_1" xmlns="http://www.w3.org/2000/svg" version="1.1" viewBox="0 0 1062 242.8">
  <!-- Generator: Adobe Illustrator 30.5.1, SVG Export Plug-In . SVG Version: 2.1.4 Build 3)  -->
  <defs>
    <style>
      .st0 {
        fill: #0d407e;
      }

      .st1 {
        fill: #81dd01;
      }
    </style>
  </defs>
  <g id="icon">
    <path id="icon-bg" class="st0" d="M53,0h136.8c29.3,0,53,23.7,53,53v136.8c0,29.3-23.7,53-53,53H53c-29.3,0-53-23.7-53-53V53C0,23.7,23.7,0,53,0Z"/>
    <path id="icon-x" class="st1" d="M188,156.1h0l-21.2-28.3,18.7-25.1c1.3-1.9,1.3-4.5,0-6.5l-.3-.3c-1.1-1.2-2.6-1.7-4.8-1.7h-3.7c-.9,0-1.9.2-2.8.7-.6.3-1.5.9-2,1.8l-14,18.8-14-18.8c-.5-.9-1.4-1.5-2-1.8-.9-.5-1.9-.7-2.8-.7h-3.7c-2.2,0-3.7.5-4.8,1.7l-.3.3c-1.3,2-1.3,4.6,0,6.5l18.7,25.1-21.2,28.3h0c-.8,2.2-.8,3.9,0,5.4,1,2,3.1,2.9,4.9,2.9h4.5c1.9,0,3.5-.9,4.7-2.5l16-21.6,16,21.6c1.2,1.6,2.8,2.5,4.7,2.5h4.5c1.8,0,3.9-.9,4.9-2.9.8-1.5.8-3.2,0-5.4h0Z"/>
    <path id="icon-b" class="st1" d="M116.4,101.9c-7.1-7.1-15.7-10.7-25.7-10.8h-.5c-8.1,0-15.3,2.4-21.5,7.1v-29c0-3.5-2.9-6.1-6.8-6.1h-.8c-1.9,0-3.6.6-4.8,1.7-1.3,1.1-2,2.7-2,4.5v58.6c0,10,3.3,18.5,9.9,25.2l.6.6c7.1,7.1,15.8,10.7,25.8,10.7s18.7-3.5,25.8-10.7c7-7,10.5-15.7,10.5-25.9s-3.5-19.1-10.5-25.9ZM74.9,111.8c4.4-4.4,9.3-6.5,15.3-6.5s11.2,2.1,15.3,6.5c4.2,4.3,6.2,9.5,6.2,15.8s-2.1,11.7-6.2,15.8c-4.4,4.5-9.2,6.6-15.3,6.6s-11.2-2-15-6.5c-4.2-4.1-6.2-9.3-6.2-15.9s1.9-11.4,5.9-15.8Z"/>
  </g>
  <g id="wordmark">
    <path id="letter-b" class="st0" d="M470.1,93.7c-17.2-17.2-38.2-25.9-62.4-25.9s-37.6,6.1-52.7,18.1V13.9c0-7.9-6.7-13.9-15.5-13.9h-2c-9.1,0-15.5,5.7-15.5,13.9v141.6c0,24.8,8.4,45.6,25.1,61.8,16.9,16.9,37.6,25.5,61.5,25.5s44.7-8.3,61.5-25.5c16.6-16.6,25.1-37.4,25.1-61.8s-8.4-45.6-25.1-61.8ZM370.1,116.4c10.7-10.7,23-16,37.6-16s27.6,5.1,37.5,15.9c10.2,10.6,15.2,23.3,15.2,38.8s-5.1,28.9-15.2,38.8c-10.8,11.1-22.7,16.3-37.5,16.3s-27.6-5-36.8-15.9h0c-10.2-10.3-15.2-23.1-15.2-39.3s4.7-28,14.4-38.6h0Z"/>
    <path id="letter-e" class="st0" d="M677.8,148.2c-1.2-20.7-9.6-39-25.1-54.5-16.9-16.9-37.6-25.5-61.5-25.5s-45,8.6-61.5,25.5c-16.6,16.6-25.1,37.4-25.1,61.8s8.4,45.6,25.1,61.8c16.9,16.9,37.6,25.5,61.5,25.5s44.7-8.3,61.5-25.5c6.4-6.4,11.3-14.4,15.2-21.4,1.5-2.9,1.5-6.7,0-9.7l-.2-.4c-2-2.4-4.8-5.1-9.4-5.1h-10.9c-6.7,0-10,1.3-11.6,4.5-2.1,3.3-4.4,6.3-6.5,8.5-10.7,10.7-23,16-37.6,16s-27.6-5.2-36.7-15.9h0c-7.5-7.6-12.3-16.7-13.8-26.4h117.7c4.4.7,9-1.1,13.8-5.3l.2-.2c3.8-4.3,5.3-8.6,4.9-14v.3h0ZM641.8,137h-99.2c2.5-7,6.6-13.6,12.1-19.5,10.5-10.9,22.4-15.9,37.4-15.9s27.5,5.1,37.5,16c5.9,5.9,10,12.4,12.2,19.4h0Z"/>
    <path id="letter-x" class="st0" d="M821,223.8l-50.6-69.2,45.6-61.4c3.8-4.3,3.8-10.5,0-14.9-2.7-2.8-6.5-4.2-11.3-4.2h-6.8c-5.9,0-10.9,2.3-13.6,6.4l-34.4,46.4-34.4-46.4c-2.7-4.1-7.7-6.4-13.6-6.4h-6.8c-4.8,0-8.6,1.4-11.3,4.2-3.8,4.4-3.8,10.6,0,14.9l45.6,61.4-50.6,69.2c-2.8,4.3-2.8,10.2,0,14.5,2.4,2.8,5.7,4.5,9.6,4.5h10.9c3.6,0,7.5-2.1,9.5-5.2l41.1-56.4,41.1,56.4c2,3.1,5.9,5.2,9.5,5.2h10.9c3.9,0,7.2-1.7,9.6-4.5,2.8-4.3,2.8-10.2,0-14.5h0Z"/>
    <path id="letter-i" class="st0" d="M855.3,6.4c-12.5,0-22.8,10.2-22.8,22.7s10,22.7,22.8,22.7,22.8-10,22.8-22.7-10-22.7-22.8-22.7ZM855.7,74.6h-2c-8.8,0-15.5,6.1-15.5,14.3v139.6c0,7.9,6.4,14.3,14.3,14.3h4.4c7.9,0,14.3-6.4,14.3-14.3V88.9c0-8.5-6.2-14.3-15.5-14.3Z"/>
    <path id="letter-o" class="st0" d="M1036.9,93.7c-16.9-16.9-37.6-25.5-61.5-25.5s-45,8.6-61.5,25.5c-16.6,16.6-25.1,37.4-25.1,61.8s8.4,45.6,25.1,61.8c16.9,16.9,37.6,25.5,61.5,25.5s44.7-8.3,61.5-25.5c16.6-16.6,25.1-37.4,25.1-61.8s-8.4-46-25.1-61.9h0v.1ZM1028.6,155.8c0,15.8-4.9,29-15,38.8-10.7,10.7-23,16-37.6,16s-27.6-5.2-36.7-15.9h0c-10.2-10.3-15.3-23.1-15.3-39.3s4.6-28,14.4-38.4c10.5-10.9,22.4-15.9,37.5-15.9s27.6,5.1,37.5,15.9c10.2,10.6,15.2,23.3,15.2,38.8h0Z"/>
  </g>
</svg>