<?xml version="1.0" encoding="UTF-8" standalone="no"?>
<!-- Created with Inkscape (http://www.inkscape.org/) -->

<svg
   version="1.1"
   id="svg824"
   xml:space="preserve"
   width="367.05545"
   height="72.029335"
   viewBox="0 0 367.05545 72.029334"
   sodipodi:docname="Euronext Securities logo.svg"
   inkscape:version="1.1 (c68e22c387, 2021-05-23)"
   xmlns:inkscape="http://www.inkscape.org/namespaces/inkscape"
   xmlns:sodipodi="http://sodipodi.sourceforge.net/DTD/sodipodi-0.dtd"
   xmlns="http://www.w3.org/2000/svg"
   xmlns:svg="http://www.w3.org/2000/svg"><defs
     id="defs828"><clipPath
       clipPathUnits="userSpaceOnUse"
       id="clipPath866"><path
         d="M 0,0 H 595.276 V 841.89 H 0 Z"
         id="path864" /></clipPath></defs><sodipodi:namedview
     id="namedview826"
     pagecolor="#ffffff"
     bordercolor="#666666"
     borderopacity="1.0"
     inkscape:pageshadow="2"
     inkscape:pageopacity="0.0"
     inkscape:pagecheckerboard="0"
     showgrid="false"
     fit-margin-bottom="4"
     fit-margin-top="4"
     fit-margin-left="4"
     fit-margin-right="4"
     inkscape:zoom="0.68328403"
     inkscape:cx="325.63325"
     inkscape:cy="-275.87356"
     inkscape:window-width="1920"
     inkscape:window-height="1017"
     inkscape:window-x="-8"
     inkscape:window-y="690"
     inkscape:window-maximized="1"
     inkscape:current-layer="g830" /><g
     id="g830"
     inkscape:groupmode="layer"
     inkscape:label="ES_CSD-Corporate_Brochure_WEB_020223"
     transform="matrix(1.3333333,0,0,-1.3333333,-71.590665,123.216)"><g
       id="g1106"><g
         id="g860"><g
           id="g862"
           clip-path="url(#clipPath866)"><g
             id="g868"
             transform="translate(107.1268,72.9844)"><path
               d="m 0,0 c 0,0.141 0.094,0.235 0.235,0.235 h 8.14 C 8.516,0.235 8.61,0.141 8.61,0 v -2.094 c 0,-0.141 -0.094,-0.235 -0.235,-0.235 H 3.293 c -0.094,0 -0.141,-0.047 -0.141,-0.141 v -3.717 c 0,-0.094 0.047,-0.141 0.141,-0.141 h 4.729 c 0.141,0 0.235,-0.094 0.235,-0.235 v -1.953 c 0,-0.141 -0.094,-0.235 -0.235,-0.235 H 3.293 c -0.094,0 -0.141,-0.047 -0.141,-0.141 v -4.117 c 0,-0.094 0.047,-0.141 0.141,-0.141 h 5.458 c 0.141,0 0.235,-0.094 0.235,-0.235 v -2.141 c 0,-0.141 -0.094,-0.235 -0.235,-0.235 H 0.235 C 0.094,-15.761 0,-15.667 0,-15.526 Z"
               style="fill:#00857d;fill-opacity:1;fill-rule:nonzero;stroke:none"
               id="path870" /></g><g
             id="g872"
             transform="translate(130.1107,60.8223)"><path
               d="m 0,0 c 0,-2.541 -2.329,-3.834 -5.74,-3.834 -3.882,0 -5.693,1.293 -5.693,3.834 v 12.162 c 0,0.141 0.094,0.235 0.235,0.235 h 2.659 c 0.141,0 0.235,-0.094 0.235,-0.235 V 0.917 c 0,-1.834 1.2,-2.117 2.611,-2.117 1.411,0 2.588,0.283 2.588,2.141 v 11.221 c 0,0.141 0.094,0.235 0.235,0.235 h 2.635 C -0.094,12.397 0,12.303 0,12.162 Z"
               style="fill:#00857d;fill-opacity:1;fill-rule:nonzero;stroke:none"
               id="path874" /></g><g
             id="g876"
             transform="translate(138.9799,62.8218)"><path
               d="m 0,0 c -0.188,0.353 -0.235,0.423 -0.376,0.447 h -1.647 c -0.118,0 -0.188,-0.047 -0.188,-0.165 v -5.646 c 0,-0.141 -0.094,-0.235 -0.235,-0.235 h -2.659 c -0.141,0 -0.235,0.094 -0.235,0.235 v 15.527 c 0,0.141 0.094,0.235 0.235,0.235 h 4.776 c 3.576,0 5.387,-1.2 5.387,-4.423 C 5.058,3.858 4.611,2.588 2.988,1.647 2.823,1.506 2.753,1.411 2.753,1.317 2.753,1.082 2.87,0.823 3.129,0.4 L 6.258,-5.364 C 6.328,-5.481 6.328,-5.599 6.14,-5.599 H 3.011 c -0.141,0 -0.212,0.047 -0.282,0.212 z m 1.788,5.458 c 0,2.117 -0.565,2.658 -2.682,2.658 h -1.011 c -0.259,0 -0.306,-0.047 -0.306,-0.141 V 2.752 c 0,-0.117 0.047,-0.164 0.164,-0.188 h 1.153 c 2.023,0 2.682,0.8 2.682,2.894"
               style="fill:#00857d;fill-opacity:1;fill-rule:nonzero;stroke:none"
               id="path878" /></g><g
             id="g880"
             transform="translate(158.0121,58.4696)"><path
               d="m 0,0 c -0.988,-1.176 -2.423,-1.482 -4.705,-1.482 -2.282,0 -3.647,0.306 -4.658,1.482 -1.012,1.224 -1.576,3.764 -1.576,6.752 0,2.987 0.564,5.528 1.576,6.751 1.011,1.176 2.447,1.482 4.728,1.482 2.282,0 3.647,-0.306 4.635,-1.482 C 1.035,12.28 1.6,9.739 1.6,6.752 1.6,3.764 1.035,1.224 0,0 m -6.916,1.694 c 0.376,-0.518 1.035,-0.588 2.234,-0.588 1.247,0 1.883,0.07 2.259,0.588 0.517,0.729 0.753,2.823 0.753,5.058 0,2.258 -0.236,4.328 -0.753,5.057 -0.376,0.518 -1.012,0.589 -2.212,0.589 -1.246,0 -1.905,-0.071 -2.281,-0.589 -0.518,-0.729 -0.753,-2.799 -0.753,-5.057 0,-2.235 0.235,-4.329 0.753,-5.058"
               style="fill:#00857d;fill-opacity:1;fill-rule:nonzero;stroke:none"
               id="path882" /></g><g
             id="g884"
             transform="translate(170.5982,57.223)"><path
               d="m 0,0 c -0.188,0 -0.259,0.094 -0.329,0.282 l -4.258,11.527 c -0.094,0.33 -0.189,0.471 -0.33,0.471 -0.141,0 -0.164,-0.047 -0.164,-0.447 L -4.893,0.235 C -4.893,0.094 -4.987,0 -5.128,0 H -7.575 C -7.716,0 -7.81,0.094 -7.81,0.235 v 15.526 c 0,0.142 0.094,0.236 0.235,0.236 h 4.023 c 0.164,0 0.235,-0.118 0.306,-0.283 L 0.753,4.587 C 0.871,4.234 0.917,4.211 1.035,4.211 1.153,4.211 1.2,4.258 1.2,4.446 L 1.035,15.761 c 0,0.142 0.094,0.236 0.235,0.236 h 2.494 c 0.141,0 0.235,-0.094 0.235,-0.236 V 0.235 C 3.999,0.094 3.905,0 3.764,0 Z"
               style="fill:#00857d;fill-opacity:1;fill-rule:nonzero;stroke:none"
               id="path886" /></g><g
             id="g888"
             transform="translate(178.2915,72.9844)"><path
               d="m 0,0 c 0,0.141 0.094,0.235 0.235,0.235 h 8.14 C 8.516,0.235 8.61,0.141 8.61,0 v -2.094 c 0,-0.141 -0.094,-0.235 -0.235,-0.235 H 3.294 c -0.095,0 -0.142,-0.047 -0.142,-0.141 v -3.717 c 0,-0.094 0.047,-0.141 0.142,-0.141 h 4.728 c 0.141,0 0.235,-0.094 0.235,-0.235 v -1.953 c 0,-0.141 -0.094,-0.235 -0.235,-0.235 H 3.294 c -0.095,0 -0.142,-0.047 -0.142,-0.141 v -4.117 c 0,-0.094 0.047,-0.141 0.142,-0.141 h 5.457 c 0.141,0 0.236,-0.094 0.236,-0.235 v -2.141 c 0,-0.141 -0.095,-0.235 -0.236,-0.235 H 0.235 C 0.094,-15.761 0,-15.667 0,-15.526 Z"
               style="fill:#00857d;fill-opacity:1;fill-rule:nonzero;stroke:none"
               id="path890" /></g><g
             id="g892"
             transform="translate(194.2415,63.2217)"><path
               d="M 0,0 C -0.776,-1.647 -2.141,-4.658 -2.635,-5.787 -2.658,-5.858 -2.752,-5.999 -2.87,-5.999 h -2.846 c -0.118,0 -0.165,0.094 -0.165,0.259 0.423,1.012 2.776,5.787 3.717,7.551 0.165,0.283 0.188,0.424 0.188,0.565 0,0.141 -0.047,0.259 -0.212,0.564 -1.082,1.93 -3.199,6.046 -3.552,6.846 0,0.141 0.024,0.212 0.165,0.212 h 2.964 c 0.118,0 0.212,-0.118 0.259,-0.235 0.541,-1.247 1.834,-4.023 2.493,-5.34 0.047,-0.118 0.094,-0.142 0.235,-0.142 0.095,0 0.118,0.024 0.189,0.142 0.635,1.317 1.811,4.046 2.352,5.34 0.047,0.094 0.118,0.235 0.259,0.235 h 2.87 C 6.187,9.998 6.211,9.904 6.211,9.763 5.529,8.304 3.67,4.705 2.705,2.94 2.494,2.564 2.494,2.494 2.494,2.352 2.494,2.211 2.564,2.047 2.682,1.811 3.599,0 5.975,-4.728 6.399,-5.74 6.399,-5.905 6.352,-5.999 6.234,-5.999 H 3.293 c -0.164,0 -0.305,0.141 -0.329,0.212 C 2.447,-4.564 1.247,-1.647 0.424,0 0.376,0.094 0.33,0.141 0.188,0.141 0.118,0.141 0.047,0.094 0,0"
               style="fill:#00857d;fill-opacity:1;fill-rule:nonzero;stroke:none"
               id="path894" /></g><g
             id="g896"
             transform="translate(204.546,70.4907)"><path
               d="m 0,0 c 0,0.094 -0.047,0.141 -0.141,0.141 h -3.012 c -0.141,0 -0.235,0.094 -0.235,0.236 v 2.117 c 0,0.141 0.094,0.235 0.235,0.235 H 6.304 C 6.446,2.729 6.54,2.635 6.54,2.494 V 0.377 C 6.54,0.235 6.446,0.141 6.304,0.141 H 3.27 C 3.176,0.141 3.129,0.094 3.129,0 v -13.033 c 0,-0.141 -0.094,-0.235 -0.236,-0.235 H 0.235 C 0.094,-13.268 0,-13.174 0,-13.033 Z"
               style="fill:#00857d;fill-opacity:1;fill-rule:nonzero;stroke:none"
               id="path898" /></g><g
             id="g900"
             transform="translate(222.3784,70.7965)"><path
               d="m 0,0 c -1.411,0 -1.906,-0.47 -1.906,-1.647 0,-0.941 0.306,-1.364 2.777,-3.105 1.976,-1.388 3.011,-2.423 3.011,-4.728 0,-3.035 -1.6,-4.258 -4.564,-4.258 -1.859,0 -3.505,0.211 -4.423,0.423 -0.141,0.024 -0.212,0.094 -0.212,0.188 l 0.165,2.118 c 0,0.094 0.047,0.164 0.165,0.164 1.176,-0.212 2.4,-0.329 3.623,-0.329 1.388,0 1.976,0.4 1.976,1.694 0,0.87 -0.094,1.294 -3.317,3.74 -2,1.506 -2.423,2.588 -2.423,4.234 0,3.153 1.741,4.047 5.152,4.047 1.341,0 3.058,-0.236 3.623,-0.471 C 3.741,2.023 3.764,1.929 3.764,1.859 L 3.623,-0.188 C 3.623,-0.259 3.576,-0.329 3.482,-0.329 2.635,-0.118 1.035,0 0,0"
               style="fill:#00857d;fill-opacity:1;fill-rule:nonzero;stroke:none"
               id="path902" /></g><g
             id="g904"
             transform="translate(229.2952,72.9844)"><path
               d="m 0,0 c 0,0.141 0.094,0.235 0.235,0.235 h 8.14 C 8.516,0.235 8.61,0.141 8.61,0 v -2.094 c 0,-0.141 -0.094,-0.235 -0.235,-0.235 H 3.293 c -0.094,0 -0.141,-0.047 -0.141,-0.141 v -3.717 c 0,-0.094 0.047,-0.141 0.141,-0.141 h 4.729 c 0.141,0 0.235,-0.094 0.235,-0.235 v -1.953 c 0,-0.141 -0.094,-0.235 -0.235,-0.235 H 3.293 c -0.094,0 -0.141,-0.047 -0.141,-0.141 v -4.117 c 0,-0.094 0.047,-0.141 0.141,-0.141 h 5.458 c 0.141,0 0.235,-0.094 0.235,-0.235 v -2.141 c 0,-0.141 -0.094,-0.235 -0.235,-0.235 H 0.235 C 0.094,-15.761 0,-15.667 0,-15.526 Z"
               style="fill:#00857d;fill-opacity:1;fill-rule:nonzero;stroke:none"
               id="path906" /></g><g
             id="g908"
             transform="translate(246.6332,56.9878)"><path
               d="m 0,0 c -4.587,0 -6.187,2.893 -6.187,8.116 0,5.128 1.6,8.351 6.187,8.351 1.364,0 2.541,-0.165 3.176,-0.4 C 3.27,16.02 3.34,15.997 3.34,15.855 L 3.223,13.621 c 0,-0.071 -0.118,-0.165 -0.235,-0.118 -0.612,0.188 -1.6,0.329 -2.518,0.329 -2.705,0 -3.317,-1.411 -3.317,-5.74 0,-4.046 0.612,-5.457 3.317,-5.457 0.871,0 1.882,0.141 2.47,0.305 0.118,0.024 0.283,0.024 0.306,-0.117 L 3.411,0.729 C 3.435,0.588 3.388,0.47 3.317,0.447 2.494,0.188 1.364,0 0,0"
               style="fill:#00857d;fill-opacity:1;fill-rule:nonzero;stroke:none"
               id="path910" /></g><g
             id="g912"
             transform="translate(264.1122,60.8223)"><path
               d="m 0,0 c 0,-2.541 -2.329,-3.834 -5.74,-3.834 -3.882,0 -5.693,1.293 -5.693,3.834 v 12.162 c 0,0.141 0.094,0.235 0.235,0.235 h 2.659 c 0.141,0 0.235,-0.094 0.235,-0.235 V 0.917 c 0,-1.834 1.2,-2.117 2.611,-2.117 1.411,0 2.588,0.283 2.588,2.141 v 11.221 c 0,0.141 0.094,0.235 0.235,0.235 h 2.635 C -0.094,12.397 0,12.303 0,12.162 Z"
               style="fill:#00857d;fill-opacity:1;fill-rule:nonzero;stroke:none"
               id="path914" /></g><g
             id="g916"
             transform="translate(272.9815,62.8218)"><path
               d="m 0,0 c -0.188,0.353 -0.235,0.423 -0.376,0.447 h -1.647 c -0.118,0 -0.188,-0.047 -0.188,-0.165 v -5.646 c 0,-0.141 -0.094,-0.235 -0.235,-0.235 h -2.659 c -0.141,0 -0.235,0.094 -0.235,0.235 v 15.527 c 0,0.141 0.094,0.235 0.235,0.235 h 4.776 c 3.576,0 5.387,-1.2 5.387,-4.423 C 5.058,3.858 4.611,2.588 2.988,1.647 2.823,1.506 2.753,1.411 2.753,1.317 2.753,1.082 2.87,0.823 3.129,0.4 L 6.258,-5.364 C 6.328,-5.481 6.328,-5.599 6.14,-5.599 H 3.011 c -0.141,0 -0.212,0.047 -0.282,0.212 z m 1.788,5.458 c 0,2.117 -0.565,2.658 -2.682,2.658 h -1.011 c -0.259,0 -0.306,-0.047 -0.306,-0.141 V 2.752 c 0,-0.117 0.047,-0.164 0.165,-0.188 h 1.152 c 2.023,0 2.682,0.8 2.682,2.894"
               style="fill:#00857d;fill-opacity:1;fill-rule:nonzero;stroke:none"
               id="path918" /></g><g
             id="g920"
             transform="translate(281.8039,57.223)"><path
               d="m 0,0 c -0.141,0 -0.235,0.094 -0.235,0.235 v 15.526 c 0,0.142 0.094,0.236 0.235,0.236 h 2.658 c 0.141,0 0.236,-0.094 0.236,-0.236 V 0.235 C 2.894,0.094 2.799,0 2.658,0 Z"
               style="fill:#00857d;fill-opacity:1;fill-rule:nonzero;stroke:none"
               id="path922" /></g><g
             id="g924"
             transform="translate(290.2257,70.4907)"><path
               d="m 0,0 c 0,0.094 -0.047,0.141 -0.141,0.141 h -3.011 c -0.141,0 -0.236,0.094 -0.236,0.236 v 2.117 c 0,0.141 0.095,0.235 0.236,0.235 H 6.305 C 6.446,2.729 6.54,2.635 6.54,2.494 V 0.377 C 6.54,0.235 6.446,0.141 6.305,0.141 H 3.27 C 3.176,0.141 3.129,0.094 3.129,0 v -13.033 c 0,-0.141 -0.094,-0.235 -0.235,-0.235 H 0.235 C 0.094,-13.268 0,-13.174 0,-13.033 Z"
               style="fill:#00857d;fill-opacity:1;fill-rule:nonzero;stroke:none"
               id="path926" /></g><g
             id="g928"
             transform="translate(299.1422,57.223)"><path
               d="m 0,0 c -0.141,0 -0.235,0.094 -0.235,0.235 v 15.526 c 0,0.142 0.094,0.236 0.235,0.236 h 2.658 c 0.141,0 0.235,-0.094 0.235,-0.236 V 0.235 C 2.893,0.094 2.799,0 2.658,0 Z"
               style="fill:#00857d;fill-opacity:1;fill-rule:nonzero;stroke:none"
               id="path930" /></g><g
             id="g932"
             transform="translate(305.7055,72.9844)"><path
               d="m 0,0 c 0,0.141 0.094,0.235 0.235,0.235 h 8.14 C 8.516,0.235 8.61,0.141 8.61,0 v -2.094 c 0,-0.141 -0.094,-0.235 -0.235,-0.235 H 3.293 c -0.094,0 -0.141,-0.047 -0.141,-0.141 v -3.717 c 0,-0.094 0.047,-0.141 0.141,-0.141 h 4.729 c 0.141,0 0.235,-0.094 0.235,-0.235 v -1.953 c 0,-0.141 -0.094,-0.235 -0.235,-0.235 H 3.293 c -0.094,0 -0.141,-0.047 -0.141,-0.141 v -4.117 c 0,-0.094 0.047,-0.141 0.141,-0.141 h 5.458 c 0.141,0 0.235,-0.094 0.235,-0.235 v -2.141 c 0,-0.141 -0.094,-0.235 -0.235,-0.235 H 0.235 C 0.094,-15.761 0,-15.667 0,-15.526 Z"
               style="fill:#00857d;fill-opacity:1;fill-rule:nonzero;stroke:none"
               id="path934" /></g><g
             id="g936"
             transform="translate(322.1026,70.7965)"><path
               d="m 0,0 c -1.411,0 -1.905,-0.47 -1.905,-1.647 0,-0.941 0.305,-1.364 2.776,-3.105 1.976,-1.388 3.011,-2.423 3.011,-4.728 0,-3.035 -1.6,-4.258 -4.564,-4.258 -1.859,0 -3.505,0.211 -4.423,0.423 -0.141,0.024 -0.212,0.094 -0.212,0.188 l 0.165,2.118 c 0,0.094 0.047,0.164 0.165,0.164 1.176,-0.212 2.399,-0.329 3.623,-0.329 1.387,0 1.976,0.4 1.976,1.694 0,0.87 -0.094,1.294 -3.317,3.74 -2,1.506 -2.423,2.588 -2.423,4.234 0,3.153 1.74,4.047 5.151,4.047 1.342,0 3.059,-0.236 3.623,-0.471 C 3.74,2.023 3.764,1.929 3.764,1.859 L 3.623,-0.188 C 3.623,-0.259 3.576,-0.329 3.482,-0.329 2.635,-0.118 1.035,0 0,0"
               style="fill:#00857d;fill-opacity:1;fill-rule:nonzero;stroke:none"
               id="path938" /></g></g></g><path
         d="m 56.693,73.323 h 4.389 V 60.765 h -4.389 z"
         style="fill:#8cc7e8;fill-opacity:1;fill-rule:nonzero;stroke:none"
         id="path940" /><path
         d="m 61.082,50.791 h -4.389 v 9.973 h 4.389 z"
         style="fill:#40b5e5;fill-opacity:1;fill-rule:nonzero;stroke:none"
         id="path942" /><path
         d="M 61.082,82.697 H 65.54 V 68.785 h -4.458 z"
         style="fill:#40b5e5;fill-opacity:1;fill-rule:nonzero;stroke:none"
         id="path944" /><path
         d="M 61.082,68.785 H 65.54 V 52.835 H 61.082 Z"
         style="fill:#14a3c7;fill-opacity:1;fill-rule:nonzero;stroke:none"
         id="path946" /><path
         d="m 69.954,65.372 h -4.413 v 15.005 h 4.413 z"
         style="fill:#5cb8b2;fill-opacity:1;fill-rule:nonzero;stroke:none"
         id="path948" /><path
         d="m 69.954,47.807 h -4.413 v 17.566 h 4.413 z"
         style="fill:#26998a;fill-opacity:1;fill-rule:nonzero;stroke:none"
         id="path950" /><path
         d="m 69.954,89.412 h 6.731 V 73.42 h -6.731 z"
         style="fill:#a1d1c9;fill-opacity:1;fill-rule:nonzero;stroke:none"
         id="path952" /><path
         d="m 76.684,44.159 h -6.731 v 29.26 h 6.731 z"
         style="fill:#00857d;fill-opacity:1;fill-rule:nonzero;stroke:none"
         id="path954" /><path
         d="m 76.684,81.516 h 4.423 V 60.824 h -4.423 z"
         style="fill:#009638;fill-opacity:1;fill-rule:nonzero;stroke:none"
         id="path956" /><path
         d="m 81.108,41.39 h -4.423 v 19.433 h 4.423 z"
         style="fill:#00695e;fill-opacity:1;fill-rule:nonzero;stroke:none"
         id="path958" /><path
         d="m 81.108,85.498 h 6.725 V 67.205 h -6.725 z"
         style="fill:#85bd00;fill-opacity:1;fill-rule:nonzero;stroke:none"
         id="path960" /><path
         d="m 87.833,47.385 h -6.725 v 19.819 h 6.725 z"
         style="fill:#007863;fill-opacity:1;fill-rule:nonzero;stroke:none"
         id="path962" /><path
         d="m 92.259,63.4 h -4.426 v 9.929 h 4.426 z"
         style="fill:#a3d65e;fill-opacity:1;fill-rule:nonzero;stroke:none"
         id="path964" /><path
         d="m 92.259,52.836 h -4.426 v 10.563 h 4.426 z"
         style="fill:#009945;fill-opacity:1;fill-rule:nonzero;stroke:none"
         id="path966" /><path
         d="M 96.68,67.204 H 92.259 V 76.27 H 96.68 Z"
         style="fill:#c2e08a;fill-opacity:1;fill-rule:nonzero;stroke:none"
         id="path968" /><path
         d="M 96.68,56.677 H 92.259 V 67.204 H 96.68 Z"
         style="fill:#78bf21;fill-opacity:1;fill-rule:nonzero;stroke:none"
         id="path970" /></g></g></svg>
