<?xml version="1.0" encoding="UTF-8"?><svg version="1.1" width="98px" height="32px" viewBox="0 0 98.0 32.0" xmlns="http://www.w3.org/2000/svg" xmlns:xlink="http://www.w3.org/1999/xlink"><defs><clipPath id="i0"><path d="M6.09900051,0.0983000028 C7.08900051,0.295400003 7.99800051,0.781500003 8.71100051,1.4951 C9.42400051,2.2088 9.91000051,3.118 10.1070005,4.1077 C10.3040005,5.0974 10.2020005,6.1232 9.81600051,7.0555 C9.43000051,7.9877 8.77600051,8.7845 7.93700051,9.345 C7.09800051,9.9056 6.11100051,10.2048 5.10200051,10.2048 C4.43200051,10.2048 3.76900051,10.0728 3.14900051,9.8162 C2.53000051,9.5597 1.96760051,9.1836 1.49380051,8.7096 C1.01990051,8.2356 0.644100511,7.6729 0.387800511,7.0536 C0.131500511,6.4343 -0.000299489012,5.7706 0,5.1004 C0.000400510988,4.0913 0.300000511,3.105 0.860900511,2.2662 C1.42180051,1.4274 2.21900051,0.773700003 3.15100051,0.387800003 C4.08400051,0.00190000284 5.10900051,-0.0987999972 6.09900051,0.0983000028 Z"></path></clipPath><clipPath id="i1"><path d="M27.046,0 C31.281,0 32.929,3.3683 32.929,6.5685 L32.929,23.4499 L28.646,23.4499 L28.646,7.7546 C28.646,4.8884 27.09,3.5683 24.89,3.5683 L18.372,3.5683 L18.372,23.4499 L14.079,23.4499 L14.079,3.5683 L4.278,3.5683 L4.278,23.4499 L0,23.4499 L0,0 Z"></path></clipPath><clipPath id="i2"><path d="M22.55,0 L22.55,3.5703 L7.525,3.5703 C4.551,3.5703 4.275,5.6085 4.275,6.5845 L4.27551797,6.80414554 C4.28406449,8.04089649 4.43362857,9.7088 7.051,9.7088 L18.052,9.7088 C21.754,9.7088 23.354,11.903 23.354,16.7974 C23.354,20.9057 22.112,23.4519 17.778,23.4519 L0.395,23.4519 L0.395,19.8756 L15.992,19.8756 C19.034,19.8756 19.034,17.7835 19.034,16.7654 C19.034,15.6753 19.034,13.2751 15.914,13.2751 L5.727,13.2751 C1.527,13.2751 0,10.1808 0,6.5085 C0,3.0703 1.401,0 6.023,0 L22.55,0 Z"></path></clipPath><clipPath id="i3"><path d="M23.038,0 L23.038,25.5381 C23.038,28.8824 21.75,30.6525 17.771,30.6525 L3.018,30.6525 L3.018,26.8982 L16.403,26.8982 C18.431,26.8982 18.773,26.1261 18.773,24.356 L18.773,23.4499 L8.505,23.4499 C4.454,23.4499 3.14,22.8019 2.34,22.2338 C1.156,21.2397 0,20.0757 0,15.9093 L0,7.4446 C0.022,3.5123 1.068,2.3542 2.21,1.4441 C3.258,0.6101 4.678,0 8.495,0 L23.038,0 Z M9.983,3.5703 C5.592,3.4663 4.53,4.4904 4.382,7.3706 C4.37993548,7.41240645 4.37860354,7.46120728 4.37782371,7.52120049 L4.37704548,7.62010933 C4.37684086,7.67428564 4.37689604,7.73593834 4.37713491,7.80683847 L4.37783498,7.96149337 C4.37948474,8.26955625 4.38292162,8.71781927 4.38439267,9.39358755 L4.38497754,9.78527568 C4.38537981,10.2697925 4.38470968,10.8528677 4.382,11.557 C4.37945455,12.2268727 4.37783471,12.8165405 4.37688805,13.3338777 L4.37615644,13.8273963 C4.37606879,13.9057283 4.3759975,13.982124 4.3759414,14.0566198 L4.3759227,14.8617122 C4.37596945,14.9215928 4.37602671,14.9797195 4.37609333,15.0361286 L4.37691377,15.4984211 C4.37725035,15.637717 4.37763954,15.7625393 4.37804975,15.8738724 L4.37888889,16.0788444 C4.37931313,16.1726293 4.37973737,16.2535811 4.38013006,16.3226841 L4.38086401,16.4453835 C4.38097621,16.4632975 4.38108256,16.479968 4.3811819,16.4954312 L4.3819626,16.6253798 L4.382,16.6414 C4.44111111,19.5448533 6.36850864,19.8652224 8.56545284,19.8850018 L9.09003506,19.8851891 C9.32472346,19.8837726 9.561,19.8810222 9.797,19.8796 L18.783,19.8796 L18.783,3.5703 Z"></path></clipPath></defs><g transform="translate(-1244.0 -62.80237784011209)"><g transform="translate(1243.999999489012 63.79722215988789)"><g transform="translate(1.4210854715202004e-14 13.397499997161681)"><g clip-path="url(#i0)"><polygon points="-5.09250371e-07,-3.27515792e-15 10.2048905,-3.27515792e-15 10.2048905,10.2048 -5.09250371e-07,10.2048 -5.09250371e-07,-3.27515792e-15" stroke="none" fill="#831439"></polygon></g></g><g transform="translate(13.49600051098767 7.105427357601002e-15)"><g clip-path="url(#i1)"><polygon points="0,0 32.929,0 32.929,23.4499 0,23.4499 0,0" stroke="none" fill="#6E6E6E"></polygon></g></g><g transform="translate(48.98000051098767 7.105427357601002e-15)"><g clip-path="url(#i2)"><polygon points="0,0 23.354,0 23.354,23.4519 0,23.4519 0,0" stroke="none" fill="#6E6E6E"></polygon></g></g><g transform="translate(74.96500051098768 7.105427357601002e-15)"><g clip-path="url(#i3)"><polygon points="0,0 23.038,0 23.038,30.6525 0,30.6525 0,0" stroke="none" fill="#6E6E6E"></polygon></g></g></g></g></svg>